<mxfile host="app.diagrams.net" modified="2021-09-06T02:20:03.310Z" agent="5.0 (Windows NT 10.0; Win64; x64) AppleWebKit/537.36 (KHTML, like Gecko) Chrome/93.0.4577.63 Safari/537.36" etag="U_qBMs90W1FXC-Uhzd0m" version="14.9.4" type="github">
  <diagram id="S0PaxOrZtBQw0bLjX14_" name="Page-1">
    <mxGraphModel dx="1422" dy="762" grid="1" gridSize="10" guides="1" tooltips="1" connect="1" arrows="1" fold="1" page="1" pageScale="1" pageWidth="827" pageHeight="1169" math="0" shadow="0">
      <root>
        <mxCell id="0" />
        <mxCell id="1" parent="0" />
        <mxCell id="7CBFd_eAUNE4Xpf42JwG-1" value="本地修改" style="rounded=0;whiteSpace=wrap;html=1;" parent="1" vertex="1">
          <mxGeometry x="180" y="340" width="170" height="320" as="geometry" />
        </mxCell>
        <mxCell id="7CBFd_eAUNE4Xpf42JwG-2" value="在此处处理本地修改和别人的修改，然后点击Apply。&lt;br&gt;处理后的当前代码就是本地解决完冲突待提交的代码，&lt;br&gt;然后git push就行了" style="rounded=0;whiteSpace=wrap;html=1;align=left;" parent="1" vertex="1">
          <mxGeometry x="340" y="340" width="170" height="320" as="geometry" />
        </mxCell>
        <mxCell id="7CBFd_eAUNE4Xpf42JwG-3" value="远程别人的修改" style="rounded=0;whiteSpace=wrap;html=1;" parent="1" vertex="1">
          <mxGeometry x="510" y="340" width="170" height="320" as="geometry" />
        </mxCell>
        <mxCell id="7CBFd_eAUNE4Xpf42JwG-4" value="冲突发生的条件：&lt;br&gt;&amp;nbsp; &amp;nbsp; &amp;nbsp; &amp;nbsp; 两个开发者都修改了同一个文件相同地方的代码；&lt;br&gt;&amp;nbsp; &amp;nbsp; &amp;nbsp; &amp;nbsp; 比如分支dev的一个文件X的第200行，开发人员A修改后提交并且push到远程分支了，此时开发人员B不知道，也修改了这行代码并且提交了，但注意此时B是提交不上去的。B必须先更新远程代码到本地 也就是执行git pull命令，然后会提示冲突让你解决冲突，如何解决可以利用工具，比如IDEA解决冲突的页面就是下图：" style="shape=note;strokeWidth=2;fontSize=14;size=20;whiteSpace=wrap;html=1;fillColor=#fff2cc;strokeColor=#d6b656;fontColor=#666600;align=left;verticalAlign=top;" parent="1" vertex="1">
          <mxGeometry x="170" y="150" width="500" height="150" as="geometry" />
        </mxCell>
        <mxCell id="7CBFd_eAUNE4Xpf42JwG-5" value="不同分支如何合并：&lt;br&gt;&amp;nbsp; &amp;nbsp; &amp;nbsp; &amp;nbsp;有两个分支，一个是dev分支，一个是自己的dev-baby分支，有人在dev上提交并且push了；&amp;nbsp; 假设你负责dev-baby分支，你想把别人提交的代码合到自己的分支上，那么你就可以先切换到自己的dev-baby分支，然后使用git merge dev命令(这个命令是把dev的提交全部合到自己分支上了，假设只想合别人某一次的提交，使用 git&amp;nbsp; cherry-pick)" style="shape=note;strokeWidth=2;fontSize=14;size=20;whiteSpace=wrap;html=1;fillColor=#fff2cc;strokeColor=#d6b656;fontColor=#666600;align=left;verticalAlign=top;" parent="1" vertex="1">
          <mxGeometry x="164" y="850" width="500" height="150" as="geometry" />
        </mxCell>
      </root>
    </mxGraphModel>
  </diagram>
</mxfile>
